<mxfile host="Electron" agent="Mozilla/5.0 (Windows NT 10.0; Win64; x64) AppleWebKit/537.36 (KHTML, like Gecko) draw.io/26.0.16 Chrome/132.0.6834.196 Electron/34.2.0 Safari/537.36" version="26.0.16">
  <diagram name="Page-1" id="f7oUEKpjsUb-M7rXWTK0">
    <mxGraphModel dx="926" dy="683" grid="1" gridSize="10" guides="1" tooltips="1" connect="1" arrows="1" fold="1" page="1" pageScale="1" pageWidth="1654" pageHeight="1169" math="0" shadow="0">
      <root>
        <mxCell id="0" />
        <mxCell id="1" parent="0" />
        <mxCell id="EXjqHbBT6QVGa5etMdqd-6" style="edgeStyle=orthogonalEdgeStyle;rounded=1;orthogonalLoop=1;jettySize=auto;html=1;entryX=0;entryY=0.5;entryDx=0;entryDy=0;curved=0;" edge="1" parent="1" source="EXjqHbBT6QVGa5etMdqd-1" target="EXjqHbBT6QVGa5etMdqd-4">
          <mxGeometry relative="1" as="geometry" />
        </mxCell>
        <mxCell id="EXjqHbBT6QVGa5etMdqd-9" style="edgeStyle=orthogonalEdgeStyle;rounded=1;orthogonalLoop=1;jettySize=auto;html=1;entryX=0;entryY=0.5;entryDx=0;entryDy=0;curved=0;" edge="1" parent="1" source="EXjqHbBT6QVGa5etMdqd-1" target="EXjqHbBT6QVGa5etMdqd-8">
          <mxGeometry relative="1" as="geometry" />
        </mxCell>
        <mxCell id="EXjqHbBT6QVGa5etMdqd-1" value="Project" style="ellipse;whiteSpace=wrap;html=1;" vertex="1" parent="1">
          <mxGeometry x="1080" y="50" width="120" height="40" as="geometry" />
        </mxCell>
        <mxCell id="EXjqHbBT6QVGa5etMdqd-3" value="- Name&lt;br&gt;- Description&lt;br&gt;- Creation Date&lt;br&gt;&amp;nbsp; &amp;nbsp;..." style="text;html=1;align=left;verticalAlign=middle;whiteSpace=wrap;rounded=0;fontSize=8;" vertex="1" parent="1">
          <mxGeometry x="1200" y="50" width="160" height="40" as="geometry" />
        </mxCell>
        <mxCell id="EXjqHbBT6QVGa5etMdqd-7" style="edgeStyle=orthogonalEdgeStyle;rounded=1;orthogonalLoop=1;jettySize=auto;html=1;entryX=0;entryY=0.5;entryDx=0;entryDy=0;curved=0;" edge="1" parent="1" source="EXjqHbBT6QVGa5etMdqd-4" target="EXjqHbBT6QVGa5etMdqd-5">
          <mxGeometry relative="1" as="geometry" />
        </mxCell>
        <mxCell id="EXjqHbBT6QVGa5etMdqd-4" value="Data Category" style="ellipse;whiteSpace=wrap;html=1;" vertex="1" parent="1">
          <mxGeometry x="1200" y="130" width="120" height="40" as="geometry" />
        </mxCell>
        <mxCell id="EXjqHbBT6QVGa5etMdqd-5" value="Data or Data Sub Categrory" style="ellipse;whiteSpace=wrap;html=1;" vertex="1" parent="1">
          <mxGeometry x="1320" y="210" width="120" height="40" as="geometry" />
        </mxCell>
        <mxCell id="EXjqHbBT6QVGa5etMdqd-8" value="Data Category" style="ellipse;whiteSpace=wrap;html=1;" vertex="1" parent="1">
          <mxGeometry x="1200" y="290" width="120" height="40" as="geometry" />
        </mxCell>
        <mxCell id="EXjqHbBT6QVGa5etMdqd-10" value="..." style="text;html=1;align=center;verticalAlign=middle;whiteSpace=wrap;rounded=0;" vertex="1" parent="1">
          <mxGeometry x="1230" y="340" width="60" height="30" as="geometry" />
        </mxCell>
        <mxCell id="EXjqHbBT6QVGa5etMdqd-11" value="" style="rounded=1;whiteSpace=wrap;html=1;fillColor=none;connectable=0;allowArrows=0;" vertex="1" parent="1">
          <mxGeometry x="1040" y="10" width="435" height="360" as="geometry" />
        </mxCell>
        <mxCell id="EXjqHbBT6QVGa5etMdqd-12" value="Basic Project TreeItems" style="text;html=1;align=left;verticalAlign=middle;whiteSpace=wrap;rounded=0;fontStyle=1;fontSize=16;connectable=0;allowArrows=0;" vertex="1" parent="1">
          <mxGeometry x="1320" y="10" width="120" height="40" as="geometry" />
        </mxCell>
        <mxCell id="EXjqHbBT6QVGa5etMdqd-36" value="&lt;p style=&quot;margin:0px;margin-top:4px;text-align:center;&quot;&gt;&lt;b&gt;TreeItem&lt;/b&gt;&lt;/p&gt;&lt;hr size=&quot;1&quot;&gt;&lt;p style=&quot;margin:0px;margin-left:4px;&quot;&gt;&lt;br&gt;&lt;/p&gt;&lt;hr size=&quot;1&quot;&gt;&lt;p style=&quot;margin:0px;margin-left:4px;&quot;&gt;&lt;br&gt;&lt;/p&gt;" style="verticalAlign=top;align=left;overflow=fill;fontSize=12;fontFamily=Helvetica;html=1;fillColor=#ffe6cc;strokeColor=#000000;" vertex="1" parent="1">
          <mxGeometry x="120" y="79.9999999999999" width="160" height="80.33" as="geometry" />
        </mxCell>
        <mxCell id="EXjqHbBT6QVGa5etMdqd-37" value="&lt;p style=&quot;margin:0px;margin-top:4px;text-align:center;&quot;&gt;&lt;b&gt;ManagedTreeItem&lt;/b&gt;&lt;/p&gt;&lt;hr size=&quot;1&quot;&gt;&lt;p style=&quot;margin:0px;margin-left:4px;&quot;&gt;&lt;br&gt;&lt;/p&gt;&lt;hr size=&quot;1&quot;&gt;&lt;p style=&quot;margin:0px;margin-left:4px;&quot;&gt;&lt;br&gt;&lt;/p&gt;" style="verticalAlign=top;align=left;overflow=fill;fontSize=12;fontFamily=Helvetica;html=1;fillColor=#ffe6cc;strokeColor=#000000;" vertex="1" parent="1">
          <mxGeometry x="120" y="239.9999999999999" width="160" height="80.33" as="geometry" />
        </mxCell>
      </root>
    </mxGraphModel>
  </diagram>
</mxfile>
